# xmcd CD Database Entry
#
# Track frame offsets:
# 150
# 13236
# 38847
# 52595
# 74504
# 91136
# 104340
# 131650
# 148850
#
# Disc length: 2196 seconds
#
# Revision: 1
# Processed by: cddbd v1.4b42PL1 Copyright (c) Steve Scherf et al.
# Submitted via: tcd 2.0b
#
DISCID=79089209
DTITLE=Doreen Robideaux and her Soul Kitchen - It's In the Can
DYEAR=1900
DGENRE=
TTITLE0=Testify to the Blues
TTITLE1=Salvation in the Blues
TTITLE2=I Want the Boogie Man
TTITLE3=Come the Night Owl
TTITLE4=Why Did You Go?
TTITLE5=The Pain of Love
TTITLE6=I Just Wanna Be With You
TTITLE7=Midwest Woman
TTITLE8=Movin' On
EXTD=
EXTT0=
EXTT1=
EXTT2=
EXTT3=
EXTT4=
EXTT5=
EXTT6=
EXTT7=
EXTT8=
PLAYORDER=
